SplineFontDB: 3.2
FontName: magrathea
FullName: magrathea
FamilyName: magrathea
Weight: Regular
Copyright: Copyright (c) 2026, Martin Hunt
UComments: "2026-3-6: Created with FontForge (http://fontforge.org)"
Version: 001.000
ItalicAngle: 0
UnderlinePosition: -100
UnderlineWidth: 50
Ascent: 800
Descent: 200
InvalidEm: 0
LayerCount: 2
Layer: 0 0 "Back" 1
Layer: 1 0 "Fore" 0
XUID: [1021 470 619280062 3803321]
StyleMap: 0x0000
FSType: 0
OS2Version: 0
OS2_WeightWidthSlopeOnly: 0
OS2_UseTypoMetrics: 1
CreationTime: 1772828475
ModificationTime: 1775218770
OS2TypoAscent: 0
OS2TypoAOffset: 1
OS2TypoDescent: 0
OS2TypoDOffset: 1
OS2TypoLinegap: 90
OS2WinAscent: 0
OS2WinAOffset: 1
OS2WinDescent: 0
OS2WinDOffset: 1
HheadAscent: 0
HheadAOffset: 1
HheadDescent: 0
HheadDOffset: 1
MarkAttachClasses: 1
DEI: 91125
Encoding: ISO8859-1
UnicodeInterp: none
NameList: AGL For New Fonts
DisplaySize: -48
AntiAlias: 1
FitToEm: 0
WinInfo: 38 19 5
BeginPrivate: 0
EndPrivate
BeginChars: 256 20

StartChar: A
Encoding: 65 65 0
Width: 1000
Flags: H
LayerCount: 2
Fore
SplineSet
814 240 m 2
 638 139 l 1
 255 -82 l 2
 244 -88 232 -92 220 -92 c 0
 208 -92 197 -88 186 -82 c 0
 164 -69 152 -47 152 -23 c 0
 152 -23 152 0 152 30 c 0
 152 90 152 180 152 180 c 1
 152 623 l 2
 152 647 164 670 186 683 c 0
 197 689 208 692 220 692 c 0
 232 692 244 688 255 682 c 0
 431 581 l 1
 814 360 l 2
 835 348 849 326 849 300 c 0
 849 274 835 252 814 240 c 2
EndSplineSet
Validated: 1
EndChar

StartChar: B
Encoding: 66 66 1
Width: 1000
Flags: HW
LayerCount: 2
Fore
SplineSet
181 240 m 6
 160 252 146 274 146 300 c 4
 146 326 160 348 181 360 c 6
 564 581 l 5
 740 682 l 4
 751 688 763 692 775 692 c 4
 787 692 798 689 809 683 c 4
 831 670 843 647 843 623 c 6
 843 180 l 5
 843 180 843 90 843 30 c 4
 843 0 843 -23 843 -23 c 4
 843 -47 831 -69 809 -82 c 4
 798 -88 787 -92 775 -92 c 4
 763 -92 751 -88 740 -82 c 6
 357 139 l 5
 181 240 l 6
EndSplineSet
Validated: 1
EndChar

StartChar: C
Encoding: 67 67 2
Width: 1000
Flags: H
LayerCount: 2
Fore
SplineSet
500 730 m 0
 525 730 549 728 573 724 c 1
 576 714 577 703 577 691 c 0
 577 679 576 666 576 653 c 0
 576 613 583 570 638 538 c 0
 660 525 681 520 699 520 c 0
 756 520 794 568 831 575 c 1
 862 538 887 495 904 449 c 1
 871 411 775 406 775 300 c 0
 775 194 871 189 904 151 c 1
 887 105 862 62 831 25 c 1
 794 32 756 80 699 80 c 0
 681 80 660 75 638 62 c 0
 583 30 576 -13 576 -53 c 0
 576 -66 577 -79 577 -91 c 0
 577 -103 576 -114 573 -124 c 1
 549 -128 525 -130 500 -130 c 0
 475 -130 452 -128 428 -124 c 1
 425 -114 424 -103 424 -91 c 0
 424 -79 425 -66 425 -53 c 0
 425 -13 418 30 363 62 c 0
 341 75 320 80 302 80 c 0
 245 80 206 32 169 25 c 1
 138 62 114 105 97 151 c 1
 130 189 225 194 225 300 c 0
 225 406 130 411 97 449 c 1
 114 495 138 538 169 575 c 1
 206 568 245 520 302 520 c 0
 320 520 341 525 363 538 c 0
 418 570 425 613 425 653 c 0
 425 666 424 679 424 691 c 0
 424 703 425 714 428 724 c 1
 452 728 475 730 500 730 c 0
500 465 m 0
 409 465 335 391 335 300 c 0
 335 209 409 135 500 135 c 0
 591 135 665 209 665 300 c 0
 665 391 591 465 500 465 c 0
EndSplineSet
Validated: 1
EndChar

StartChar: D
Encoding: 68 68 3
Width: 1000
Flags: H
LayerCount: 2
Fore
SplineSet
845 397 m 0
 845 532 735 642 600 642 c 0
 465 642 355 532 355 397 c 0
 355 262 465 152 600 152 c 0
 735 152 845 262 845 397 c 0
600 747 m 0
 793 747 950 589 950 396 c 0
 950 203 793 46 600 46 c 0
 526 46 457 69 401 108 c 1
 158 -152 l 0
 147 -164 131 -172 114 -172 c 0
 98 -172 84 -165 73 -155 c 2
 71 -153 l 0
 59 -142 51 -126 51 -109 c 0
 51 -93 58 -79 68 -68 c 2
 313 195 l 1
 273 252 250 321 250 396 c 0
 250 589 407 747 600 747 c 0
567 603 m 1
 640 603 l 1
 640 436 l 1
 807 436 l 1
 807 364 l 1
 640 364 l 1
 640 197 l 1
 567 197 l 1
 567 364 l 1
 400 364 l 1
 400 436 l 1
 567 436 l 1
 567 603 l 1
EndSplineSet
Validated: 1
EndChar

StartChar: E
Encoding: 69 69 4
Width: 1000
Flags: H
LayerCount: 2
Fore
SplineSet
845 397 m 0
 845 532 735 642 600 642 c 0
 465 642 355 532 355 397 c 0
 355 262 465 152 600 152 c 0
 735 152 845 262 845 397 c 0
600 747 m 0
 793 747 950 589 950 396 c 0
 950 203 793 46 600 46 c 0
 526 46 457 69 401 108 c 1
 158 -152 l 0
 147 -164 131 -172 114 -172 c 0
 98 -172 84 -165 73 -155 c 2
 71 -153 l 0
 59 -142 51 -126 51 -109 c 0
 51 -93 58 -79 68 -68 c 2
 313 195 l 1
 273 252 250 321 250 396 c 0
 250 589 407 747 600 747 c 0
400 364 m 1
 400 436 l 1
 807 436 l 1
 807 364 l 1
 400 364 l 1
EndSplineSet
Validated: 1
EndChar

StartChar: F
Encoding: 70 70 5
Width: 1000
Flags: H
LayerCount: 2
Fore
SplineSet
251 627 m 2
 749 627 l 2
 770 627 791 619 807 603 c 0
 823 587 832 566 832 545 c 1
 832 55 l 2
 832 34 823 13 807 -3 c 0
 791 -19 770 -27 749 -27 c 1
 251 -27 l 2
 230 -27 209 -19 193 -3 c 0
 177 13 168 34 168 55 c 1
 168 545 l 2
 168 566 177 587 193 603 c 0
 209 619 230 627 251 627 c 2
EndSplineSet
Validated: 1
EndChar

StartChar: T
Encoding: 84 84 6
Width: 1000
Flags: H
LayerCount: 2
Fore
SplineSet
964 290 m 2
 490 16 l 2
 487 14 482 14 478 16 c 0
 474 18 473 22 473 26 c 0
 473 26 473 145 473 272 c 1
 287 272 l 1
 287 -60 l 2
 287 -82 269 -100 247 -100 c 2
 75 -100 l 2
 53 -100 35 -82 35 -60 c 2
 35 660 l 2
 35 682 53 700 75 700 c 2
 247 700 l 2
 269 700 287 682 287 660 c 2
 287 328 l 1
 473 328 l 1
 473 455 473 574 473 574 c 2
 473 578 474 582 478 584 c 0
 482 586 487 586 490 584 c 0
 964 310 l 2
 967 308 970 304 970 300 c 0
 970 296 967 292 964 290 c 2
225 666 m 2
 98 666 l 2
 86 666 76 656 76 645 c 1
 76 -45 l 2
 76 -56 86 -66 98 -66 c 1
 225 -66 l 2
 237 -66 246 -56 246 -45 c 2
 246 272 l 1
 154 272 l 1
 154 328 l 1
 246 328 l 1
 246 645 l 2
 246 656 237 666 225 666 c 2
EndSplineSet
Validated: 1
EndChar

StartChar: U
Encoding: 85 85 7
Width: 1000
Flags: H
LayerCount: 2
Fore
SplineSet
41 290 m 2
 38 292 35 296 35 300 c 0
 35 304 38 308 41 310 c 2
 515 584 l 2
 518 586 523 586 527 584 c 0
 531 582 533 578 533 574 c 2
 533 328 l 1
 718 328 l 1
 718 660 l 2
 718 682 736 700 758 700 c 2
 930 700 l 2
 952 700 970 682 970 660 c 2
 970 -60 l 2
 970 -82 952 -100 930 -100 c 2
 758 -100 l 2
 736 -100 718 -82 718 -60 c 2
 718 272 l 1
 533 272 l 1
 533 26 l 2
 533 22 531 18 527 16 c 0
 523 14 518 14 515 16 c 2
 41 290 l 2
781 666 m 2
 769 666 759 656 759 645 c 2
 759 328 l 1
 852 328 l 1
 852 272 l 1
 759 272 l 1
 759 -45 l 2
 759 -56 769 -66 781 -66 c 2
 908 -66 l 2
 920 -66 929 -56 929 -45 c 2
 929 645 l 2
 929 656 920 666 908 666 c 2
 781 666 l 2
EndSplineSet
Validated: 1
EndChar

StartChar: V
Encoding: 86 86 8
Width: 1000
Flags: H
LayerCount: 2
Fore
SplineSet
499 225 m 1
 205 -69 l 2
 200 -74 191 -78 183 -78 c 0
 175 -78 167 -74 162 -69 c 1
 131 -38 l 2
 126 -33 122 -25 122 -17 c 0
 122 -9 126 0 131 5 c 2
 425 299 l 1
 272 452 130 594 130 594 c 1
 125 599 121 608 121 616 c 0
 121 624 125 632 130 637 c 1
 161 668 l 2
 166 673 174 677 182 677 c 0
 190 677 198 673 203 668 c 2
 499 373 l 1
 795 669 l 2
 800 674 809 678 817 678 c 0
 825 678 833 674 838 669 c 1
 869 638 l 2
 874 633 878 625 878 617 c 0
 878 609 874 600 869 595 c 2
 573 299 l 1
 868 3 l 2
 873 -2 877 -10 877 -18 c 0
 877 -26 873 -34 868 -39 c 1
 837 -70 l 2
 832 -75 824 -79 816 -79 c 0
 808 -79 799 -75 794 -70 c 1
 794 -70 652 72 499 225 c 1
EndSplineSet
Validated: 1
EndChar

StartChar: W
Encoding: 87 87 9
Width: 1000
Flags: H
LayerCount: 2
Fore
SplineSet
310 289 m 2
 307 291 305 295 305 300 c 0
 305 305 307 309 310 311 c 2
 856 689 l 0
 859 691 863 691 866 689 c 0
 869 687 872 682 872 678 c 2
 872 -78 l 0
 872 -82 869 -87 866 -89 c 0
 863 -91 859 -91 856 -89 c 2
 310 289 l 2
217 700 m 2
 222 700 227 698 231 694 c 0
 235 690 237 685 237 680 c 2
 237 -80 l 1
 237 -85 235 -90 231 -94 c 0
 227 -98 222 -100 217 -100 c 2
 119 -100 l 1
 114 -100 109 -98 105 -94 c 0
 101 -90 99 -85 99 -80 c 2
 99 680 l 1
 99 685 101 690 105 694 c 0
 109 698 114 700 119 700 c 2
 217 700 l 2
EndSplineSet
Validated: 1
EndChar

StartChar: X
Encoding: 88 88 10
Width: 1000
Flags: H
LayerCount: 2
Fore
SplineSet
762 700 m 2
 860 700 l 2
 865 700 870 698 874 694 c 0
 878 690 880 685 880 680 c 2
 880 -80 l 2
 880 -85 878 -90 874 -94 c 0
 870 -98 865 -100 860 -100 c 2
 762 -100 l 2
 757 -100 751 -98 747 -94 c 0
 743 -90 741 -85 741 -80 c 2
 741 680 l 2
 741 685 743 690 747 694 c 0
 751 698 757 700 762 700 c 2
669 289 m 2
 123 -89 l 2
 120 -91 116 -91 113 -89 c 0
 110 -87 107 -82 107 -78 c 2
 107 678 l 2
 107 682 110 687 113 689 c 0
 116 691 120 691 123 689 c 2
 669 311 l 2
 672 309 674 305 674 300 c 0
 674 295 672 291 669 289 c 2
EndSplineSet
Validated: 1
EndChar

StartChar: Y
Encoding: 89 89 11
Width: 1000
Flags: H
LayerCount: 2
Fore
SplineSet
845 397 m 0
 845 532 735 642 600 642 c 0
 465 642 355 532 355 397 c 0
 355 262 465 152 600 152 c 0
 735 152 845 262 845 397 c 0
600 747 m 0
 793 747 950 589 950 396 c 0
 950 203 793 46 600 46 c 0
 526 46 457 69 401 108 c 1
 158 -152 l 0
 147 -164 131 -172 114 -172 c 0
 98 -172 84 -165 73 -155 c 2
 71 -153 l 0
 59 -142 51 -126 51 -109 c 0
 51 -93 58 -79 68 -68 c 2
 313 195 l 1
 273 252 250 321 250 396 c 0
 250 589 407 747 600 747 c 0
EndSplineSet
Validated: 1
EndChar

StartChar: S
Encoding: 83 83 12
Width: 1000
Flags: H
LayerCount: 2
Fore
SplineSet
78 333 m 1
 922 333 l 1
 922 267 l 1
 78 267 l 1
 78 333 l 1
112 170 m 1
 888 170 l 1
 500 -170 l 1
 112 170 l 1
112 430 m 1
 500 770 l 1
 888 430 l 1
 112 430 l 1
EndSplineSet
Validated: 1
EndChar

StartChar: G
Encoding: 71 71 13
Width: 1000
Flags: H
LayerCount: 2
Fore
SplineSet
511 768 m 0
 764 768 969 562 969 309 c 0
 969 56 764 -150 511 -150 c 0
 258 -150 52 56 52 309 c 0
 52 562 258 768 511 768 c 0
511 720 m 0
 284 720 99 536 99 309 c 0
 99 82 284 -103 511 -103 c 0
 738 -103 922 82 922 309 c 0
 922 536 738 720 511 720 c 0
323 582 m 2
 316 588 311 596 311 606 c 0
 311 616 316 625 323 631 c 2
 340 644 l 1
 349 651 360 655 372 655 c 0
 384 655 395 651 404 644 c 2
 813 327 l 0
 820 321 825 313 825 303 c 0
 825 293 820 285 813 279 c 2
 419 -26 l 1
 410 -33 399 -37 387 -37 c 0
 375 -37 364 -33 355 -26 c 2
 338 -13 l 0
 331 -7 326 2 326 12 c 0
 326 22 331 30 338 36 c 2
 653 279 l 0
 660 285 665 293 665 303 c 0
 665 313 660 321 653 327 c 2
 323 582 l 2
EndSplineSet
Validated: 1
EndChar

StartChar: Z
Encoding: 90 90 14
Width: 1000
Flags: H
LayerCount: 2
Fore
SplineSet
484 -140 m 2
 189 212 l 2
 187 215 186 219 189 222 c 0
 192 225 197 227 202 227 c 1
 202 227 265 227 349 227 c 1
 349 412 349 714 349 714 c 2
 349 719 351 724 355 728 c 0
 359 732 364 734 369 734 c 2
 624 734 l 2
 629 734 634 732 638 728 c 0
 642 724 644 719 644 714 c 2
 644 714 644 412 644 227 c 1
 728 227 791 227 791 227 c 2
 796 227 800 225 803 222 c 0
 806 219 805 215 803 212 c 0
 509 -140 l 2
 507 -143 501 -145 496 -145 c 0
 491 -145 486 -143 484 -140 c 2
EndSplineSet
Validated: 1
EndChar

StartChar: R
Encoding: 82 82 15
Width: 1000
Flags: H
LayerCount: 2
Fore
SplineSet
343 489 m 2
 657 489 l 2
 662 489 667 487 671 483 c 0
 675 479 678 473 678 468 c 1
 678 468 678 452 678 447 c 1
 718 447 l 2
 733 447 747 441 758 429 c 0
 769 417 775 402 775 386 c 1
 775 163 l 2
 775 147 769 132 758 120 c 0
 747 108 733 102 718 102 c 1
 282 102 l 2
 267 102 253 108 242 120 c 0
 231 132 225 147 225 163 c 1
 225 386 l 2
 225 402 231 417 242 429 c 0
 253 441 267 447 282 447 c 2
 322 447 l 1
 322 452 322 468 322 468 c 2
 322 473 325 479 329 483 c 0
 333 487 338 489 343 489 c 2
447 275 m 0
 447 305 470 328 500 328 c 0
 530 328 553 305 553 275 c 0
 553 245 530 221 500 221 c 0
 470 221 447 245 447 275 c 0
360 275 m 0
 360 198 423 135 500 135 c 0
 577 135 640 198 640 275 c 0
 640 352 577 415 500 415 c 0
 423 415 360 352 360 275 c 0
151 697 m 2
 135 697 119 691 107 679 c 0
 95 667 89 652 89 637 c 2
 89 -37 l 2
 89 -52 95 -67 107 -79 c 0
 119 -91 135 -97 151 -97 c 2
 849 -97 l 2
 865 -97 881 -91 893 -79 c 0
 905 -67 911 -52 911 -37 c 2
 911 637 l 2
 911 652 905 667 893 679 c 0
 881 691 865 697 849 697 c 2
 151 697 l 2
156 743 m 2
 844 743 l 2
 873 743 903 732 925 710 c 0
 947 688 959 660 959 632 c 1
 959 -32 l 2
 959 -60 947 -88 925 -110 c 0
 903 -132 873 -143 844 -143 c 1
 156 -143 l 2
 127 -143 97 -132 75 -110 c 0
 53 -88 41 -60 41 -32 c 1
 41 632 l 2
 41 660 53 688 75 710 c 0
 97 732 127 743 156 743 c 2
EndSplineSet
Validated: 1
EndChar

StartChar: P
Encoding: 80 80 16
Width: 1000
Flags: H
LayerCount: 2
Fore
SplineSet
507 681 m 0
 644 681 774 559 775 353 c 0
 775 341 775 314 775 285 c 1
 836 285 l 2
 849 285 862 281 872 271 c 0
 882 261 886 248 886 235 c 1
 886 -67 l 2
 886 -80 882 -92 872 -102 c 0
 862 -112 849 -117 836 -117 c 1
 164 -117 l 2
 151 -117 138 -112 128 -102 c 0
 118 -92 114 -80 114 -67 c 1
 114 235 l 2
 114 248 118 261 128 271 c 0
 138 281 151 285 164 285 c 2
 240 285 l 1
 240 315 240 342 240 353 c 0
 240 559 370 681 507 681 c 0
685 285 m 1
 685 314 685 342 685 353 c 0
 684 524 593 591 507 591 c 0
 421 591 330 524 330 353 c 0
 330 342 330 315 330 285 c 1
 685 285 l 1
EndSplineSet
Validated: 1
EndChar

StartChar: Q
Encoding: 81 81 17
Width: 1000
Flags: H
LayerCount: 2
Fore
SplineSet
286 765 m 0
 423 765 554 643 554 437 c 0
 554 415 554 329 554 285 c 1
 936 285 l 2
 948 285 958 281 967 271 c 0
 976 261 980 248 980 235 c 1
 980 -67 l 2
 980 -80 976 -92 967 -102 c 0
 958 -112 948 -117 936 -117 c 1
 331 -117 l 2
 319 -117 308 -112 299 -102 c 0
 290 -92 286 -80 286 -67 c 1
 286 235 l 2
 286 248 290 261 299 271 c 0
 308 281 319 285 331 285 c 2
 464 285 l 1
 464 329 464 415 464 437 c 0
 464 608 372 675 286 675 c 0
 200 675 109 608 108 437 c 0
 108 405 108 381 108 381 c 1
 18 380 l 1
 18 380 18 404 18 437 c 0
 19 643 149 765 286 765 c 0
389 226 m 2
 380 226 371 222 364 215 c 0
 357 208 353 200 353 191 c 2
 353 -22 l 2
 353 -31 357 -40 364 -47 c 0
 371 -54 380 -57 389 -57 c 2
 877 -57 l 2
 886 -57 895 -54 902 -47 c 0
 909 -40 913 -31 913 -22 c 2
 913 191 l 2
 913 200 909 208 902 215 c 0
 895 222 886 226 877 226 c 2
 389 226 l 2
EndSplineSet
Validated: 1
EndChar

StartChar: O
Encoding: 79 79 18
Width: 1000
Flags: H
LayerCount: 2
Fore
SplineSet
59 104 m 1
 149 104 l 1
 149 -45 l 1
 851 -45 l 1
 851 104 l 1
 941 104 l 1
 941 -135 l 1
 59 -135 l 1
 59 104 l 1
500 71 m 1
 298 274 l 1
 298 409 l 1
 455 252 l 1
 453 722 l 1
 543 722 l 1
 545 251 l 1
 702 409 l 1
 702 274 l 1
 500 71 l 1
EndSplineSet
Validated: 1
EndChar

StartChar: N
Encoding: 78 78 19
Width: 1000
Flags: HO
LayerCount: 2
Fore
SplineSet
115 363 m 1
 28 615 l 1
 84 729 l 1
 149 538 l 1
 176 586 284 752 495 752 c 0
 498 752 501 752 504 752 c 0
 740 746 950 538 950 303 c 0
 950 65 738 -133 507 -133 c 0
 504 -133 501 -133 498 -133 c 0
 364 -130 255 -38 178 47 c 0
 101 132 54 216 54 216 c 1
 132 260 l 1
 132 260 175 184 245 107 c 0
 315 30 408 -41 500 -43 c 0
 502 -43 504 -43 506 -43 c 0
 684 -43 860 120 860 303 c 0
 860 482 685 657 502 662 c 0
 500 662 497 662 495 662 c 0
 329 662 248 530 229 496 c 1
 423 563 l 1
 368 450 l 1
 115 363 l 1
171 476 m 1
 171 476 l 1
 171 476 l 1
 171 476 l 1
EndSplineSet
EndChar
